<?xml version="1.0" encoding="utf-8"?>
<!-- Generator: Adobe Illustrator 28.0.0, SVG Export Plug-In . SVG Version: 6.00 Build 0)  -->
<svg version="1.1" id="OBJECTS" xmlns="http://www.w3.org/2000/svg" xmlns:xlink="http://www.w3.org/1999/xlink" x="0px" y="0px"
	 viewBox="0 0 405 338.6" style="enable-background:new 0 0 405 338.6;" xml:space="preserve">
<style type="text/css">
	.st0{fill:#E5DBFE;}
	.st1{fill:#4A3E7F;}
	.st2{fill:#CED4F2;}
	.st3{fill:#E88989;}
	.st4{fill:#FF9D9C;}
	.st5{fill:#C96767;}
	.st6{fill:#DD553E;}
	.st7{fill:#FEFEFE;}
	.st8{fill:#F46C6C;}
	.st9{fill:#161675;}
	.st10{fill:#EDCF5C;}
	.st11{fill:#E0993B;}
	.st12{fill:#110945;}
</style>
<path class="st0" d="M362.3,127.7c-2.8-15.6-12.3-31.7-27.8-35.3c-20.3-4.6-41.6,13.9-61,6.3c-11.7-4.6-18-17.4-20.8-29.7
	c-2.8-12.3-2.1-25.7-7.9-36.8c-27.4-52.3-98.6-20.3-107.6-12.2c-11.4,10.4-22.8,21.4-29.2,35.4c-14,30.5-1.8,67.3-11.6,99.4
	c-5.4,17.5-17.1,32.7-22,50.3c-4,14-7.6,32.7-6.3,47.2c2.6,29.1,6.2,51.6,21.5,81.9c0,0,225.5-4.9,229.5-12.3
	c3.7-7,9.4-62.4,15.5-81.1c6.1-18.7,14.7-36.5,21-55.2C361.8,167.1,365.8,147.1,362.3,127.7z"/>
<g>
	<path class="st1" d="M161.3,41.3c-18.5,14.5-19.5,26.1-18.1,37.7c0.7,5.7,2.8,11.4,1.5,17c-1,4.3-3.9,7.9-6.3,11.5
		c-3.7,5.5-6.5,11.7-6.9,18.3c-0.4,6.6,1.9,13.6,7.1,17.7c5.4,4.3,12.8,4.8,19.6,4.3c6.8-0.5,13.7-2,20.5-1c5.3,0.8,10.5,3,15.9,2.4
		c3.5-0.4,6.8-2.1,10-3.7c3.7-1.9,7.5-3.9,10-7.2c4.5-6,3.5-14.6,6.6-21.5c1.7-3.7,4.5-6.8,6.3-10.5c2.7-5.7,2.4-12.4,1.2-18.6
		c-3.3-17.5-5-34.5-19.3-45C203.3,38.3,177.8,28.4,161.3,41.3z"/>
	<g>
		<path class="st1" d="M142.2,121.9c0.5-6,5.8-9.1,8.8-13.7c2.3-3.5,3.1-7.6,3.6-11.7c0.1-0.8-1.3-1-1.4-0.2
			c-0.4,2.9-0.8,5.6-1.9,8.3c-1.4,3.5-3.9,5.9-6.2,8.7c-2.2,2.6-3.6,5.3-3.7,8.7C141.2,122.5,142.2,122.5,142.2,121.9L142.2,121.9z"
			/>
	</g>
	<g>
		<path class="st1" d="M151,122.3c6.1-4.7,12-13.9,9.8-22c-0.1-0.4-0.8-0.5-0.9,0c-0.6,3.8-0.5,7.5-2.1,11.1
			c-1.6,3.9-4.2,7.2-7.5,9.9C149.8,121.8,150.4,122.7,151,122.3L151,122.3z"/>
	</g>
	<g>
		<path class="st1" d="M214.8,122.1c1.4-8.3,8.5-13.7,9.6-22.2c0.5-4.1,0.6-8.2,0.3-12.3c-0.2-3.2-0.1-7.5-1.7-10.3
			c-0.3-0.5-1-0.3-1.1,0.3c-0.2,3.5,0.9,7.2,1.1,10.8c0.2,4.2,0.2,8.4-0.5,12.5c-1.2,7.8-8,13.1-9.2,20.9
			C213.2,122.7,214.7,123.1,214.8,122.1L214.8,122.1z"/>
	</g>
	<g>
		<path class="st1" d="M209.7,121.6c0.4-1.5,0.9-3,1.5-4.4c0.5-1.2,1.2-2.3,1.7-3.5c0.2-0.5-0.5-0.9-0.9-0.5
			c-1.9,2.1-2.8,5.5-3.3,8.2C208.5,121.9,209.5,122.2,209.7,121.6L209.7,121.6z"/>
	</g>
</g>
<path class="st0" d="M133.4,136.6c-2.4,3.1-2.8,7.3-2.9,11.2c-1.5,49.7,10.9,99.1,9.1,148.8c29.1,3.7,58.5,4.7,87.7,2.8
	c4-26.3,4.2-53,4.4-79.6c0.1-14.8,0.2-29.7,0.3-44.5c0.1-13.1,0-26.8-6-38.4c-0.6-1.2-1.4-2.5-2.7-3.2c-1-0.5-2.1-0.6-3.3-0.7
	c-16.8-1.2-33.8-1.5-50.6-0.8c-7,0.3-13.7,0.9-20.7,0.1C143.3,131.7,137.2,131.9,133.4,136.6z"/>
<g>
	<path class="st2" d="M171.3,183.8c3.8,7.5,8.6,14.4,14.4,20.5c4.2,4.5,10.5,11.7,17.3,10.8c0.6-0.1,0.9-1.1,0.2-1.2
		c-7.6-1.5-13-7.1-18-12.7c-5-5.5-9.2-11.6-12.8-18.1C172,182.5,170.9,183.1,171.3,183.8L171.3,183.8z"/>
</g>
<g>
	<path class="st2" d="M175.1,214.2c2.8,6.8,9,12.3,14.4,17c4.9,4.3,11.4,10.3,18.3,9.5c0.8-0.1,1.1-1.2,0.2-1.5
		c-7.3-2.2-12.6-5.6-18.3-10.6c-4.8-4.3-10.2-9.1-13.1-15C176.2,212.8,174.8,213.4,175.1,214.2L175.1,214.2z"/>
</g>
<g>
	<path class="st2" d="M186,246.1c2.9,1.3,5.9,2.7,9,3.2c0.8,0.1,1.1-1.1,0.4-1.5c-2.7-1.4-5.6-2.2-8.4-3.4
		C185.9,243.8,184.8,245.5,186,246.1L186,246.1z"/>
</g>
<path class="st3" d="M163.6,119.6c-4.4,6.1-11.8,10-19.3,10.2c4.6,9.6,9.4,19.4,17,26.9c7.6,7.5,19,11.1,31,8.8
	c7.5-1.5,15.3-6,19-12.7c3.7-6.7,4.7-12.2,2.1-23c-7.4,0-13.2-6.7-16-13.5c-2.8-6.9-3.9-14.5-7.6-20.9c-7.8-1.6-15.6-3.3-23.5-4.9
	C168,100.4,169.9,110.8,163.6,119.6z"/>
<path class="st4" d="M184,112.8c7.5,3.6,14.6,4.1,21.3-0.8c7.2-5.3,11.2-14.9,11.7-23.8c0.4-7.6,0.4-15.2-0.1-22.7
	c-0.4-6-1.2-12.6-5.4-17c-2.3-2.4-5.3-3.9-8.4-5.1c-10.4-4-23.3-4.2-31.7,3.2C150.6,64.8,161.2,101.8,184,112.8z"/>
<path class="st1" d="M200.2,50.3c4.9,7.5,11,14.1,18.2,19.5c8.5-4.5,4.2-18.6-1.1-24.7c-5.3-6-12.3-11-25.5-12.1
	c-4-0.4-47.5,0.5-36.4,35c1.1,3.4,6,20.8,11.8,5.2c3.6-9.7,14.6-6.6,20.2-9.9C189.1,62.3,201.8,52.8,200.2,50.3z"/>
<path class="st4" d="M166.1,78c-1.8-4.4-4.7-8.3-9.4-8.3c-7.2,3.2-3.6,14.1,2,18.7C170.3,97.9,166.1,78,166.1,78z"/>
<g>
	<path class="st5" d="M198.6,74.8c-0.8,2.9-0.8,5.7,0.1,8.6c0.4,1.2,1.1,2.3,1.6,3.4c1.9,4,0,4.7-3.3,6c-0.7,0.3-0.8,1.3,0,1.5
		c2.8,0.7,6.6-1.3,7.1-4.4c0.3-1.8-0.9-2.8-1.9-4.2c-2.1-3.2-2.5-6.7-1.9-10.4C200.6,74.1,199,73.6,198.6,74.8L198.6,74.8z"/>
</g>
<g>
	<path class="st6" d="M183.3,76.7c0.3,0,0.3-0.5,0-0.5C183,76.2,183,76.7,183.3,76.7L183.3,76.7z"/>
</g>
<path class="st7" d="M200.2,97.2l-13.3-2c0.2,12.5,4.2,14,8.1,14C198.8,109.3,200.2,103.6,200.2,97.2z"/>
<g>
	<path class="st8" d="M179.8,91c1,0,2,0.1,2.9-0.2c1-0.3,1.8-1.2,1.8-2.3c-0.1-1.1-0.7-1.9-1.8-2.3c-1-0.3-1.9-0.3-2.9-0.2
		c-1.3,0.1-2.6,1.1-2.5,2.5C177.3,89.9,178.4,90.9,179.8,91L179.8,91z"/>
</g>
<g>
	<path class="st8" d="M211.3,89.4c0.7,0.1,1.3,0.1,2-0.1c1-0.3,1.8-1.3,1.8-2.4c0-1.1-0.7-2.1-1.8-2.4c-0.7-0.2-1.3-0.1-2-0.1
		c-0.7,0.1-1.2,0.2-1.7,0.7c-0.4,0.4-0.7,1.1-0.7,1.7C208.9,88.4,209.9,89.2,211.3,89.4L211.3,89.4z"/>
</g>
<g>
	<path class="st5" d="M160.5,74c-0.8-0.6-2-1.1-2.9-0.5c-0.4,0.2-0.7,0.6-0.9,1c0,0-0.3,0.4-0.1,0.2c0.2-0.3-0.3,0.2-0.4,0.3
		c-1.5,2.2-0.2,7.4,2.1,8.7c0.5,0.3,1.3-0.2,1.1-0.8c-0.4-1-1-1.8-1.4-2.9c-0.4-1.2-0.5-2.5-0.3-3.7c-0.2,0.1-0.3,0-0.1-0.1
		c0.1,0,0.1-0.1,0.2-0.2c0.1-0.1,0.2-0.3,0.3-0.5c0.6-0.8,1-1.1,2.1-0.7C160.7,75.1,161,74.3,160.5,74L160.5,74z"/>
</g>
<g>
	<path class="st6" d="M162.3,85.8c2.4,0,2.4-3.8,0-3.8C159.8,82,159.8,85.8,162.3,85.8L162.3,85.8z"/>
</g>
<g>
	<path class="st9" d="M166.8,63.7c4.6-5.9,9.8-4.3,16.1-6c3.9-1.1,7.5-4.5,10.6-6.9c0.4-0.3,0.2-0.9-0.4-0.8c-2.2,0.4-3.6,1.7-5.3,3
		c-4.1,3.2-7.9,3.1-12.7,3.9c-4,0.7-7.1,2.9-9.5,6.1C165.1,63.7,166.3,64.4,166.8,63.7L166.8,63.7z"/>
</g>
<g>
	<path class="st9" d="M163.3,58.7c2.6-4.7,6.6-8.5,11.8-10.3c4-1.4,8.3-1.5,12.2-3.2c0.8-0.4,0.1-1.6-0.7-1.2
		c-5.1,2.2-10.8,2.2-15.6,5.1c-3.6,2.2-6.4,5.4-8.3,9.1C162.4,58.8,163.1,59.2,163.3,58.7L163.3,58.7z"/>
</g>
<g>
	<path class="st9" d="M155.6,57.2c5.6-12.6,19.9-17.9,32.7-18.4c0.6,0,0.8-1,0.2-1.2c-12.1-3.1-30,7.5-34.1,19
		C154.2,57.4,155.3,57.9,155.6,57.2L155.6,57.2z"/>
</g>
<g>
	<path class="st9" d="M206.1,48.1c1,3.4,3.5,8.3,6.9,9.8c0.5,0.2,1.1-0.3,0.8-0.8c-0.9-1.7-2.5-2.9-3.6-4.5c-1.1-1.6-2-3.3-2.8-5.1
		C207,46.9,205.9,47.4,206.1,48.1L206.1,48.1z"/>
</g>
<g>
	<path class="st9" d="M204.5,40.7c5.9,3.5,10,8.6,11.3,15.4c0.1,0.7,1.1,0.4,1.1-0.1c0.6-7-6.2-13.2-11.8-16.3
		C204.4,39.3,203.8,40.3,204.5,40.7L204.5,40.7z"/>
</g>
<g>
	<path class="st9" d="M151,85.2c-1.2-3.2-2.3-6.3-2.3-9.8c0-3.6,1.3-6.5,2-9.9c0.1-0.5-0.6-1.1-1-0.6c-4.5,5.3-3.4,15.3,0.4,20.6
		C150.4,86,151.2,85.7,151,85.2L151,85.2z"/>
</g>
<path class="st4" d="M323.7,132.1c2-3.5,2.5-6.9,2.5-11.3c0-2.5-1.9-10.4-3-9.6c-1.9-1.5,0.4,7.6-1.9,10.5c-1-3.3-3.5-20.1-5.5-20.2
	c-3,0,0,8.2-0.5,17.7c-2.3-1.6-5.9-21.4-8.7-18.7c-1.8,1.8,3.7,15.1,2.6,20.4c-0.3-2.2-7.7-17.1-9.9-16.6c-1.1,3,3.3,11.2,4,14.3
	c0.7,3.1,0.6,8.9-2.5,9.8c-1.4-2.6-2.6-3.3-5.4-4.3s-5.3,0.8-5.4,2.5c0,1,2.5,2.2,3.5,2.4c7.3,1,9.3,12.9,10.2,13.8
	c2,1.9,1.2,5.6,3.1,7.5c1,0.9,2.4,1.2,3.7,1.5c5.8,1.1,6.8-3.6,7.3-8.3C318.5,138,321.5,136,323.7,132.1z"/>
<path class="st10" d="M293,195.4c9.8-14.3,7.8-34.4,7.6-51.8c5.3,0,13.3-0.2,18.6-0.1c5.3,21.3,11.1,64.1-7.3,83.4
	c-7,7.3-17.4,7.7-27.2,5.5c-5.3-1.2-46.2-32.4-54.3-40.8c-9.5-9.9-7.7-37.5-8-47.9c-0.4-13.1,9.4-18.2,17.9-8.1
	C249.3,146.4,287.9,195,293,195.4z"/>
<g>
	<path class="st0" d="M294.5,199.3c1.1,1,2.1,2.1,3,3.2c0.8,1,1.3,2.3,2.6,2.7c0.4,0.2,1-0.2,1-0.6c0.3-1.5-0.8-2.8-1.7-3.9
		c-1-1.3-2.2-2.4-3.5-3.4C294.8,196.5,293.5,198.3,294.5,199.3L294.5,199.3z"/>
</g>
<g>
	<path class="st0" d="M291.6,204.2c0.6-2,1.7-4.4,1.4-6.4c-0.1-0.6-1-0.8-1.3-0.3c-1.3,1.6-1.5,4.3-2,6.3
		C289.4,204.9,291.2,205.4,291.6,204.2L291.6,204.2z"/>
</g>
<g>
	<path class="st0" d="M304.8,152c3.9,0.4,8.1,0.6,12,0.2c1.6-0.1,1.6-2.4,0-2.6c-3.9-0.3-8.1-0.2-12,0.2
		C303.4,150,303.4,151.8,304.8,152L304.8,152z"/>
</g>
<path class="st10" d="M161.8,176.2c5.4,41.4,5.5,83.2,5.6,125c-17.8,1.4-35.7,1.1-53.4-0.8c2-13.3,3.9-26.7,4.1-40.2
	c0.1-7.7-0.4-15.5-0.9-23.2c-1.2-18.2-2.4-36.3-3.6-54.5c-0.6-8.8-1.2-17.7,0.3-26.3c1.4-8.7,5-17.3,11.6-23.1
	c4.3-3.8,20.2-4.6,26.8-4.8C157.1,128,160,161.9,161.8,176.2z"/>
<path class="st10" d="M216.6,190.3c0.3,40.9,1.7,72.5,0.1,113.4c11.8,0.4,23.6-1.4,34.7-5.3c4.3-39.8-0.2-80-4.9-119.8
	c-1.8-14.8-2.7-27.5-8.2-41.3c-0.7-1.8-3.7-6.5-5.6-6.8c-6.4-1.1-24.9-2.1-24.9-2.1c2.5,3.5,5.1,19.4,5.5,22.2
	C215.4,162.9,216.5,177.8,216.6,190.3z"/>
<g>
	<path class="st0" d="M235.4,143.7c2.4,7.7,4.6,15.4,6.5,23.3c0.9,3.6,1.6,7.3,2.4,10.9c0.7,3.6,0.9,7.6,2.5,11
		c0.3,0.7,1.2,0.2,1.3-0.3c0.8-7-2.4-15.4-4.1-22.1c-2-7.8-4.4-15.5-7.2-23.1C236.4,142.5,235.2,142.8,235.4,143.7L235.4,143.7z"/>
</g>
<g>
	<path class="st0" d="M142,201.8c2.9,9.8,7.2,21.1,13.3,29.4c0.4,0.6,1.6,0.3,1.3-0.5c-1.7-4.5-4-8.7-6-13
		c-2.5-5.4-4.5-10.9-6.8-16.3C143.4,200.3,141.7,200.6,142,201.8L142,201.8z"/>
</g>
<g>
	<path class="st0" d="M139.2,221.8c3.4,4.8,5.8,10.1,8.9,15c0.4,0.7,1.7,0.3,1.4-0.6c-1.9-5.5-5.7-10.5-9.1-15.1
		C139.9,220.4,138.7,221.1,139.2,221.8L139.2,221.8z"/>
</g>
<g>
	<path class="st0" d="M225.8,232.2c1.5,5.4,3.8,10.5,7.4,14.8c0.6,0.7,1.8-0.2,1.3-1c-2.7-4.6-5.3-9.2-7.1-14.2
		C227,230.8,225.5,231.2,225.8,232.2L225.8,232.2z"/>
</g>
<g>
	<path class="st0" d="M226.8,206.7c2,7.9,4.9,16.2,10.1,22.6c0.5,0.6,1.3-0.2,1-0.8c-3.7-7.4-7.6-14.2-9.9-22.2
		C227.8,205.6,226.6,205.9,226.8,206.7L226.8,206.7z"/>
</g>
<g>
	<path class="st4" d="M195.8,258.1c2.4,2.7,2.8,3.7,4,6.5c3,7.3,6.1,15.6,7.1,18.8c-1.8,1.6-3.7-1.4-5.5-4.5
		c-1.2-2.1-2.4-5.9-4.8-6.6c-0.2,2,0.4,4.8-3.4,6.9c-2,1.1-1.6-0.6-3.7,0.2c-0.6,0.2-4.3,0.4-7-1.2c-1.7-1-3.4-3.5-5.3-3.8
		c-4.5-0.6-17.4,1.2-17.7,0.7c-0.5-1.4-4.4-17.2,3.3-17C175.3,258.3,192.8,254.8,195.8,258.1z"/>
	<path class="st10" d="M96.9,191c-5.3,17-8,26.5-11.2,44c-2.3,12.5-4.7,21.7,4,31c9.6,10.3,85,12.8,86,10.9
		c5.3-10.2,2.9-17.6-0.4-21.5c-19.9-5.1-35.3-12.3-52.1-17.8c2-15.7,4.8-20,9.3-35.2c4.2-14.4,6.9-23.7,9.2-38.5
		c0.8-5.1,1.1-12.2,0.3-17.3c-1-6.9-5.7-14.3-13.4-14.4c-6.3-0.1-10.7,7.4-13.4,12.2C106.3,160,102.3,173.7,96.9,191z"/>
	<g>
		<path class="st0" d="M97.2,245.4c5.9-5.8,12.4-7.8,20.3-9.7c0.7-0.2,0.5-1.3-0.2-1.3c-7.8-0.1-15.7,4.7-21,10.1
			C95.8,245.1,96.6,245.9,97.2,245.4L97.2,245.4z"/>
	</g>
	<g>
		<path class="st0" d="M111.8,252.6c0.7-2,1.2-4.1,2.2-6c1-1.9,2.4-3.5,3.9-5c1-1.1-0.5-2.5-1.6-1.6c-3.4,2.8-6.2,7.9-6,12.4
			C110.5,253.3,111.6,253.4,111.8,252.6L111.8,252.6z"/>
	</g>
	<g>
		<path class="st0" d="M169.6,272.7c1.2-4.2,2.2-8.9,1.7-13.2c-0.1-1.2-1.8-1.2-1.9,0c-0.2,4.4-0.4,8.5-1.6,12.7
			C167.5,273.3,169.2,273.8,169.6,272.7L169.6,272.7z"/>
	</g>
</g>
<path class="st1" d="M351.5,296.1l-131-2.3l28.3-75.6c1-2.8,3.7-4.6,6.7-4.5l116.9,2.1c1.2,0,2.3,0.2,3.4,0.5l0,0
	c3,0.9,4.7,4.3,3.5,7.2L351.5,296.1z"/>
<path class="st1" d="M352.9,295.1H225.4l26.2-74c1-2.8,3.6-4.6,6.6-4.6h117.4c2.5,0,4.3,2.5,3.5,4.9L352.9,295.1z"/>
<rect x="221.2" y="295.1" class="st1" width="131" height="8.2"/>
<path class="st1" d="M160.7,303.3h60.5v-8.2h-58.5c-1.1,0-2,0.9-2,2V303.3z"/>
<path class="st7" d="M313.6,251.4c-1.6-0.5-3-0.1-4.2,0.7c-1.9,1.2-4.3,0.8-5.9-0.8c-1.3-1.3-3-1.8-4.7-0.4c-4,3.5,0,14,5.3,15.1
	C312.2,267.5,321.9,254.2,313.6,251.4z"/>
<path class="st10" d="M87.7,159.8L70.3,79.3c-0.4-2.1-2.5-3.4-4.6-2.9L4.8,88.9c-2.1,0.4-3.4,2.4-3,4.5l17.3,80.5
	c0.4,2.1,2.5,3.4,4.6,2.9l60.9-12.6C86.8,163.8,88.1,161.8,87.7,159.8z"/>
<g>
	
		<rect x="14.6" y="84.5" transform="matrix(0.9785 -0.2064 0.2064 0.9785 -24.9595 11.9384)" class="st7" width="60.2" height="82.2"/>
</g>
<g>
	<path class="st1" d="M49.2,73.7L49.2,73.7c-2.4,0.5-4.9-0.2-6.7-1.8c-2.2-1.9-5.2-2.8-8.2-2.2c-3,0.6-5.4,2.7-6.6,5.3
		c-1,2.2-3,3.9-5.4,4.4l0,0c-0.8,0.2-1.4,1-1.2,1.8l1.4,6.6c0.5,2.5,3,4.1,5.5,3.6l20.9-4.4c2.5-0.5,4.1-3,3.6-5.5L51,74.9
		C50.8,74.1,50,73.6,49.2,73.7z"/>
</g>
<g>
	<rect x="16.6" y="101.4" transform="matrix(0.9784 -0.2065 0.2065 0.9784 -20.6085 7.2883)" class="st1" width="16" height="2"/>
</g>
<g>
	<rect x="18" y="106.6" transform="matrix(0.9784 -0.2065 0.2065 0.9784 -21.3394 10.7975)" class="st1" width="46" height="2"/>
</g>
<g>
	<rect x="19.8" y="114.9" transform="matrix(0.9784 -0.2065 0.2065 0.9784 -23.0205 11.3392)" class="st1" width="46" height="2"/>
</g>
<g>
	<rect x="21.6" y="123.3" transform="matrix(0.9784 -0.2065 0.2065 0.9784 -24.7026 11.8816)" class="st1" width="46" height="2"/>
</g>
<g>
	<rect x="23.3" y="131.6" transform="matrix(0.9784 -0.2065 0.2065 0.9784 -26.3857 12.4246)" class="st1" width="46" height="2"/>
</g>
<g>
	<rect x="25.1" y="139.9" transform="matrix(0.9784 -0.2065 0.2065 0.9784 -28.0681 12.9671)" class="st1" width="46" height="2"/>
</g>
<g>
	<rect x="26.8" y="148.2" transform="matrix(0.9784 -0.2065 0.2065 0.9784 -29.7489 13.5086)" class="st1" width="46" height="2"/>
</g>
<path class="st11" d="M380.8,128.7l15,26.7c0.4,0.8,0.5,1.7,0.1,2.5c-0.3,0.7-0.8,1.4-1.6,1.8l-44.6,25c-0.8,0.4-1.6,0.6-2.4,0.4
	c-0.9-0.2-1.7-0.7-2.1-1.4l-15-26.7c-0.4-0.7-0.5-1.6-0.2-2.4c0.3-0.8,0.8-1.5,1.7-2l44.6-25c0.8-0.5,1.7-0.6,2.6-0.4
	C379.7,127.5,380.4,128,380.8,128.7z"/>
<path class="st10" d="M395.9,158c-0.3,0.7-0.8,1.4-1.6,1.8l-44.6,25c-0.8,0.4-1.6,0.6-2.4,0.4l11-23.3l3.6-7.5l8.3,0.9L395.9,158z"
	/>
<path class="st10" d="M378.9,127.3l-8.6,28l-1.7,5.5c-0.6,1.9-2.7,3.1-4.7,2.6l-5.5-1.4l-28.3-7.3c0.3-0.8,0.8-1.5,1.7-2l44.6-25
	C377.1,127.2,378.1,127.1,378.9,127.3z"/>
<rect x="292.2" y="9.5" transform="matrix(0.9204 0.391 -0.391 0.9204 36.6429 -114.1611)" class="st1" width="13" height="46.7"/>
<rect x="295.7" y="9.5" transform="matrix(0.9204 0.391 -0.391 0.9204 36.6427 -114.1607)" class="st10" width="6" height="46.7"/>
<path class="st0" d="M313.4,6.7l-6-2.6c-1.6-0.7-3.5,0.1-4.2,1.7l-1.3,3l12,5.1l1.3-3C315.8,9.3,315,7.4,313.4,6.7z"/>
<path class="st10" d="M283.6,51.9l0.4,7.7l0.3,5.7c0,0.5,0.7,0.8,1.1,0.5l4.3-3.7l5.8-5L283.6,51.9z"/>
<path class="st12" d="M284,59.6l0.3,5.7c0,0.5,0.7,0.8,1.1,0.5l4.3-3.7L284,59.6z"/>
</svg>
